<svg width="618" height="360" viewBox="0 0 618 360" fill="none" xmlns="http://www.w3.org/2000/svg">
<path d="M311 249C311 193.772 355.772 149 411 149H424C479.228 149 524 193.772 524 249V347H311V249Z" fill="#FFE6D6"/>
<circle cx="384" cy="228" r="15.5" fill="white" stroke="#4E4E4E"/>
<circle cx="452" cy="228" r="15.5" fill="white" stroke="#4E4E4E"/>
<circle cx="384" cy="233" r="10" fill="#4E4E4E"/>
<circle cx="452" cy="233" r="10" fill="#4E4E4E"/>
<path d="M419 149C443.853 149 464 128.853 464 104C464 79.147 443.853 59 419 59C394.147 59 374 79.147 374 104C374 128.853 394.147 149 419 149ZM425.244 129.049C425.244 132.498 422.448 135.294 418.999 135.294C415.55 135.294 412.754 132.498 412.754 129.049C412.754 125.6 415.55 122.804 418.999 122.804C422.448 122.804 425.244 125.6 425.244 129.049ZM437.534 93.529C437.534 99.387 435.39 102.607 430.257 106.715L427.487 108.858C425.03 110.804 424.202 111.863 424.034 113.341L423.919 114.902C423.495 117.234 421.454 119.003 418.999 119.003C416.238 119.003 413.999 116.764 413.999 114.003C414 108.294 416.099 105.161 421.157 101.118L423.937 98.968C426.822 96.679 427.534 95.547 427.534 93.529C427.534 87.953 423.723 84.034 419 84.034C414.062 84.034 410.41 87.691 410.465 93.481C410.492 96.243 408.275 98.503 405.514 98.529C402.752 98.556 400.492 96.339 400.466 93.577C400.357 82.208 408.52 74.034 419 74.034C429.31 74.034 437.534 82.492 437.534 93.529Z" fill="#4C4D16"/>
<g filter="url(#filter0_f_929_396)">
<circle cx="475.5" cy="268.5" r="13.5" fill="#FFA2D4"/>
</g>
<g filter="url(#filter1_f_929_396)">
<circle cx="367.5" cy="268.5" r="13.5" fill="#FFA2D4"/>
</g>
<path d="M191 258C191 235.909 208.909 218 231 218H292C314.091 218 332 235.909 332 258V353H191V258Z" fill="#F07127"/>
<circle cx="245.5" cy="264.5" r="7.5" fill="#F8FABF"/>
<circle cx="284.5" cy="264.5" r="7.5" fill="#F8FABF"/>
<path d="M229.639 292.584V292.584C247.836 314.457 281.029 315.592 300.679 295.014L302.999 292.584" stroke="#F8FABF" stroke-width="2"/>
<path d="M383.639 275.843V275.843C401.836 297.716 435.029 298.852 454.679 278.274L456.999 275.844" stroke="#4E4E4E" stroke-width="2"/>
<path d="M259.292 165.492C260.822 164.083 263.177 164.083 264.708 165.492L350.988 244.869C354.002 247.642 351.397 252.614 347.402 251.715L262.878 232.698C262.3 232.567 261.7 232.567 261.122 232.698L176.598 251.715C172.603 252.614 169.998 247.642 173.012 244.869L259.292 165.492Z" fill="#A3491A"/>
<path d="M0 106.5C0 134.746 11.2205 161.834 31.1931 181.807C51.1657 201.779 78.2544 213 106.5 213C134.746 213 161.834 201.78 181.807 181.807C201.779 161.834 213 134.746 213 106.5L106.5 106.5L0 106.5Z" fill="#4E4E4E"/>
<path fill-rule="evenodd" clip-rule="evenodd" d="M125.953 135.75C127.207 135.75 128.277 136.157 129.111 136.875C128.685 134.93 128.024 133.338 127.231 132.14C125.865 130.09 124.384 129.5 123.016 129.5C121.647 129.5 120.166 130.093 118.803 132.14C117.39 134.265 116.406 137.625 116.406 142C116.406 146.375 117.39 149.735 118.803 151.86C120.163 153.91 121.644 154.5 123.016 154.5C124.387 154.5 125.865 153.908 127.228 151.86C128.027 150.66 128.685 149.07 129.108 147.122C128.7 147.483 128.21 147.77 127.667 147.964C127.125 148.157 126.542 148.255 125.953 148.25C122.792 148.25 120.812 145.675 120.812 142C120.812 138.325 122.792 135.75 125.953 135.75ZM134.031 142C134.031 151.555 129.787 158.25 123.016 158.25C116.245 158.25 112 151.555 112 142C112 132.445 116.245 125.75 123.016 125.75C129.787 125.75 134.031 132.445 134.031 142ZM154.08 147.125C153.654 149.07 152.993 150.663 152.2 151.86C150.837 153.91 149.356 154.5 147.984 154.5C146.613 154.5 145.135 153.908 143.772 151.86C142.359 149.735 141.375 146.375 141.375 142C141.375 137.625 142.359 134.265 143.772 132.14C145.132 130.09 146.613 129.5 147.984 129.5C149.356 129.5 150.834 130.093 152.197 132.14C152.996 133.34 153.654 134.93 154.077 136.878C153.669 136.517 153.179 136.23 152.636 136.036C152.094 135.843 151.51 135.745 150.922 135.75C147.761 135.75 145.781 138.325 145.781 142C145.781 145.675 147.761 148.25 150.922 148.25C151.511 148.256 152.094 148.159 152.637 147.965C153.18 147.772 153.671 147.486 154.08 147.125ZM159 142C159 151.555 154.755 158.25 147.984 158.25C141.213 158.25 136.969 151.555 136.969 142C136.969 132.445 141.213 125.75 147.984 125.75C154.755 125.75 159 132.445 159 142Z" fill="#F8FABF"/>
<path d="M0 295C0 239.772 44.7715 195 100 195H113C168.228 195 213 239.772 213 295V353H0V295Z" fill="#4E4E4E"/>
<path d="M82 248C82 231.431 95.4315 218 112 218H158C174.569 218 188 231.431 188 248V360H82V248Z" fill="#F8FABF"/>
<path d="M188 203C188 211.284 181.284 218 173 218H97C88.7157 218 82 211.284 82 203V177H188V203Z" fill="#9CA11C"/>
<rect x="119.463" y="257.25" width="20.9255" height="9.5" rx="4.75" fill="white" stroke="#4E4E4E" stroke-width="0.5"/>
<rect x="129.213" y="257" width="11.2766" height="10" rx="5" fill="#4E4E4E"/>
<rect x="149.91" y="257.25" width="20.9255" height="9.5" rx="4.75" fill="white" stroke="#4E4E4E" stroke-width="0.5"/>
<rect x="159.66" y="257" width="11.2766" height="10" rx="5" fill="#4E4E4E"/>
<path d="M117.889 280L120.559 289.868C121.032 291.615 121.756 293.281 122.712 294.823L122.842 295.032C128.793 304.627 142.317 307.317 152.846 301V301" stroke="#4E4E4E" stroke-width="2" stroke-linecap="round"/>
<path d="M512 318C512 288.729 535.729 265 565 265C594.271 265 618 288.729 618 318V347H512V318Z" fill="#A3491A"/>
<path d="M618 250C618 258.284 611.284 265 603 265H527C518.716 265 512 258.284 512 250V224H618V250Z" fill="#4C4D16"/>
<rect x="524.25" y="238.25" width="20.9255" height="9.5" rx="4.75" fill="white" stroke="#9CA11C" stroke-width="0.5"/>
<rect x="524" y="238" width="11.2766" height="10" rx="5" fill="#F07127"/>
<rect x="554.697" y="238.25" width="20.9255" height="9.5" rx="4.75" fill="white" stroke="#9CA11C" stroke-width="0.5"/>
<rect x="554.447" y="238" width="11.2766" height="10" rx="5" fill="#F07127"/>
<defs>
<filter id="filter0_f_929_396" x="442" y="235" width="67" height="67" filterUnits="userSpaceOnUse" color-interpolation-filters="sRGB">
<feFlood flood-opacity="0" result="BackgroundImageFix"/>
<feBlend mode="normal" in="SourceGraphic" in2="BackgroundImageFix" result="shape"/>
<feGaussianBlur stdDeviation="10" result="effect1_foregroundBlur_929_396"/>
</filter>
<filter id="filter1_f_929_396" x="334" y="235" width="67" height="67" filterUnits="userSpaceOnUse" color-interpolation-filters="sRGB">
<feFlood flood-opacity="0" result="BackgroundImageFix"/>
<feBlend mode="normal" in="SourceGraphic" in2="BackgroundImageFix" result="shape"/>
<feGaussianBlur stdDeviation="10" result="effect1_foregroundBlur_929_396"/>
</filter>
</defs>
</svg>
