<svg width="1440" height="1080" viewBox="0 0 1440 1080" fill="none" xmlns="http://www.w3.org/2000/svg">
<path d="M720 547.199C723.977 547.199 727.2 543.975 727.2 539.999C727.2 536.022 723.977 532.799 720 532.799C716.024 532.799 712.8 536.022 712.8 539.999C712.8 543.975 716.024 547.199 720 547.199Z" fill="#F07127" fill-opacity="0.1"/>
<path d="M730.648 560.023C741.707 554.142 745.906 540.41 740.025 529.35C734.145 518.29 720.412 514.092 709.352 519.973C698.293 525.853 694.094 539.586 699.975 550.645C705.855 561.705 719.588 565.904 730.648 560.023Z" stroke="#F07127" stroke-opacity="0.1" stroke-width="0.36" stroke-dasharray="7.2 7.2 7.2 72"/>
<path d="M703.008 582.055C726.236 591.439 752.673 580.217 762.058 556.99C771.442 533.762 760.22 507.325 736.993 497.94C713.765 488.556 687.328 499.778 677.943 523.005C668.559 546.233 679.781 572.67 703.008 582.055Z" stroke="#F07127" stroke-opacity="0.1" stroke-width="0.72" stroke-dasharray="14.4 14.4 14.4 144"/>
<path d="M655.29 561.025C666.902 596.763 705.287 616.321 741.026 604.709C776.764 593.097 796.322 554.712 784.71 518.974C773.098 483.235 734.713 463.677 698.975 475.289C663.236 486.901 643.678 525.286 655.29 561.025Z" stroke="#F07127" stroke-opacity="0.1" stroke-width="1.08" stroke-dasharray="21.6 21.6 21.6 216"/>
<path d="M686.015 455.886C639.56 474.655 617.117 527.529 635.886 573.984C654.655 620.439 707.529 642.883 753.984 624.114C800.439 605.345 822.883 552.471 804.114 506.016C785.345 459.561 732.47 437.117 686.015 455.886Z" stroke="#F07127" stroke-opacity="0.1" stroke-width="1.44" stroke-dasharray="72 72 72 72 72 288"/>
<path d="M821.129 488.69C792.794 432.837 724.546 410.53 668.693 438.866C612.841 467.201 590.534 535.449 618.87 591.302C647.205 647.154 715.453 669.461 771.306 641.126C827.158 612.79 849.465 544.542 821.129 488.69Z" stroke="#F07127" stroke-opacity="0.1" stroke-width="1.8" stroke-dasharray="90 90 90 90 90 360"/>
<path d="M781.567 661.352C848.59 627.35 875.358 545.452 841.356 478.429C807.353 411.406 725.455 384.638 658.432 418.641C591.41 452.643 564.641 534.541 598.644 601.564C632.647 668.587 714.544 695.355 781.567 661.352Z" stroke="#F07127" stroke-opacity="0.1" stroke-width="2.16" stroke-dasharray="108 108 108 108 108 432"/>
<path d="M852.996 626.695C900.878 553.243 880.15 454.882 806.699 407C733.247 359.117 634.886 379.845 587.003 453.297C539.121 526.749 559.849 625.109 633.3 672.992C706.752 720.875 805.113 700.147 852.996 626.695Z" stroke="#F07127" stroke-opacity="0.1" stroke-width="2.52" stroke-dasharray="126 126 126 126 126 504"/>
<path d="M710.188 721.172C810.248 726.591 895.755 649.869 901.174 549.809C906.593 449.749 829.872 364.242 729.812 358.823C629.752 353.404 544.244 430.125 538.825 530.185C533.406 630.245 610.128 715.753 710.188 721.172Z" stroke="#F07127" stroke-opacity="0.1" stroke-width="2.88" stroke-dasharray="576 288 576 288 576 576 288 576"/>
<path d="M923.821 551.034C929.917 438.467 843.605 342.271 731.038 336.174C618.471 330.078 522.275 416.39 516.178 528.957C510.082 641.524 596.394 737.72 708.961 743.817C821.528 749.913 917.724 663.602 923.821 551.034Z" stroke="#F07127" stroke-opacity="0.1" stroke-width="3.24" stroke-dasharray="648 324 648 324 648 648 324 648"/>
<path d="M589.588 725.553C692.068 797.577 833.532 772.888 905.556 670.408C977.58 567.928 952.891 426.465 850.411 354.44C747.931 282.416 606.467 307.106 534.443 409.586C462.419 512.066 487.109 653.529 589.588 725.553Z" stroke="#F07127" stroke-opacity="0.1" stroke-width="3.6" stroke-dasharray="180 180 180 180 180 720"/>
<path d="M497.332 383.504C410.903 506.48 440.53 676.236 563.506 762.665C686.482 849.094 856.238 819.467 942.667 696.491C1029.1 573.515 999.469 403.759 876.493 317.33C753.517 230.901 583.761 260.528 497.332 383.504Z" stroke="#F07127" stroke-opacity="0.1" stroke-width="4.32" stroke-dasharray="216 216 216 216 216 864"/>
<path d="M403.737 511.772C388.148 686.439 517.107 840.672 691.774 856.26C866.441 871.849 1020.67 742.89 1036.26 568.223C1051.85 393.556 922.893 239.323 748.225 223.734C573.558 208.146 419.325 337.104 403.737 511.772Z" stroke="#F07127" stroke-opacity="0.1" stroke-width="5.04" stroke-dasharray="252 252 252 252 252 1008"/>
<path d="M567.214 210.849C385.43 295.23 306.47 510.999 390.851 692.782C475.232 874.566 691.001 953.526 872.785 869.145C1054.57 784.764 1133.53 568.995 1049.15 387.211C964.767 205.428 748.997 126.467 567.214 210.849Z" stroke="#F07127" stroke-opacity="0.1" stroke-width="5.76" stroke-dasharray="1152 576 1152 576 1152 1152 576 1152"/>
<path d="M349.708 711.881C444.637 916.388 687.377 1005.22 891.883 910.289C1096.39 815.36 1185.22 572.62 1090.29 368.114C995.363 163.607 752.623 74.7772 548.116 169.706C343.61 264.635 254.779 507.375 349.708 711.881Z" stroke="#F07127" stroke-opacity="0.1" stroke-width="6.48" stroke-dasharray="1296 648 1296 648 1296 1296 648 1296"/>
<path d="M840.951 321.799C720.442 255 568.6 298.54 501.801 419.049C435.002 539.557 478.542 691.4 599.05 758.199C719.559 824.998 871.402 781.458 938.201 660.949C1005 540.441 961.46 388.598 840.951 321.799Z" stroke="#F07127" stroke-opacity="0.1" stroke-width="3.96" stroke-dasharray="792 396 792 396 792 792 396 792"/>
<path d="M568.147 287.272C428.569 371.139 383.407 552.276 467.273 691.854C551.14 831.431 732.277 876.593 871.854 792.727C1011.43 708.86 1056.59 527.723 972.728 388.146C888.861 248.568 707.724 203.406 568.147 287.272Z" stroke="#F07127" stroke-opacity="0.1" stroke-width="4.68" stroke-dasharray="936 936"/>
<path d="M1037.6 418.083C970.272 242.675 773.491 155.063 598.083 222.396C422.676 289.728 335.063 486.509 402.396 661.916C469.729 837.324 666.509 924.937 841.917 857.604C1017.32 790.271 1104.94 593.491 1037.6 418.083Z" stroke="#F07127" stroke-opacity="0.1" stroke-width="5.4" stroke-dasharray="1080 1080"/>
<path d="M355.446 414.473C286.12 615.81 393.137 835.227 594.474 904.553C795.812 973.879 1015.23 866.863 1084.55 665.525C1153.88 464.187 1046.86 244.771 845.526 175.445C644.189 106.119 424.772 213.135 355.446 414.473Z" stroke="#F07127" stroke-opacity="0.1" stroke-width="6.12" stroke-dasharray="1224 612 612 1224"/>
<path d="M1127.44 680.293C1204.93 455.269 1085.32 210.039 860.294 132.557C635.27 55.0746 390.04 174.681 312.557 399.706C235.075 624.73 354.682 869.96 579.706 947.442C804.731 1024.92 1049.96 905.318 1127.44 680.293Z" stroke="#F07127" stroke-opacity="0.1" stroke-width="6.84" stroke-dasharray="1094.4 1094.4 1094.4 1094.4 1094.4 1368"/>
<path d="M387.72 231.222C217.189 414.736 227.713 701.746 411.227 872.278C594.741 1042.81 881.751 1032.29 1052.28 848.772C1222.81 665.258 1212.29 378.247 1028.78 207.715C845.263 37.1835 558.252 47.7077 387.72 231.222Z" stroke="#F07127" stroke-opacity="0.1" stroke-width="7.2" stroke-dasharray="1440 720 720 1440"/>
<path d="M826.331 75.7377C569.928 17.0135 314.466 177.264 255.742 433.667C197.018 690.071 357.269 945.532 613.672 1004.26C870.075 1062.98 1125.54 902.73 1184.26 646.327C1242.98 389.923 1082.73 134.462 826.331 75.7377Z" stroke="#F07127" stroke-opacity="0.1" stroke-width="7.56" stroke-dasharray="1209.6 1209.6 1209.6 1209.6 1209.6 1512"/>
<path d="M1218.58 386.614C1133.87 111.256 841.977 -43.2942 566.619 41.4169C291.261 126.128 136.711 418.022 221.422 693.38C306.133 968.738 598.027 1123.29 873.385 1038.58C1148.74 953.866 1303.29 661.972 1218.58 386.614Z" stroke="#F07127" stroke-opacity="0.1" stroke-width="8.28" stroke-dasharray="1324.8 1324.8 1324.8 1324.8 1324.8 1656"/>
<path d="M1118.74 910.526C1323.38 690.31 1310.75 345.897 1090.53 141.259C870.315 -63.3794 525.902 -50.7503 321.264 169.466C116.626 389.683 129.255 734.096 349.472 938.734C569.688 1143.37 914.101 1130.74 1118.74 910.526Z" stroke="#F07127" stroke-opacity="0.1" stroke-width="8.64" stroke-dasharray="1728 864 864 1728"/>
<path d="M593.419 1092.69C898.661 1162.6 1202.78 971.822 1272.69 666.58C1342.6 361.338 1151.83 57.2172 846.585 -12.6925C541.343 -82.6023 237.222 108.172 167.312 413.414C97.4024 718.656 288.177 1022.78 593.419 1092.69Z" stroke="#F07127" stroke-opacity="0.1" stroke-width="9" stroke-dasharray="1440 1440 1440 1440 1440 1800"/>
<path d="M773.022 1036.13C1047.03 1006.85 1245.42 760.986 1216.13 486.979C1186.85 212.971 940.986 14.5822 666.979 43.8652C392.971 73.1482 194.582 319.014 223.865 593.022C253.148 867.029 499.014 1065.42 773.022 1036.13Z" stroke="#F07127" stroke-opacity="0.1" stroke-width="7.92" stroke-dasharray="1584 792 1584 792 1584 1584 792 1584"/>
<path d="M1259.12 778.903C1391.06 481.157 1256.65 132.825 958.904 0.882099C661.157 -131.061 312.825 3.34922 180.882 301.096C48.9394 598.842 183.35 947.174 481.096 1079.12C778.842 1211.06 1127.17 1076.65 1259.12 778.903Z" stroke="#F07127" stroke-opacity="0.1" stroke-width="9.36" stroke-dasharray="1872 1872"/>
<path d="M340.51 1104.74C652.408 1314.33 1075.15 1231.39 1284.74 919.489C1494.33 607.592 1411.39 184.846 1099.49 -24.7407C787.592 -234.327 364.846 -151.388 155.26 160.51C-54.3266 472.407 28.6129 895.153 340.51 1104.74Z" stroke="#F07127" stroke-opacity="0.1" stroke-width="10.8" stroke-dasharray="2160 2160"/>
<path d="M1460.88 326.157C1342.77 -83.0175 915.332 -318.978 506.157 -200.876C96.9826 -82.774 -138.978 344.668 -20.8761 753.843C97.2261 1163.02 524.668 1398.98 933.843 1280.88C1343.02 1162.77 1578.98 735.332 1460.88 326.157Z" stroke="#F07127" stroke-opacity="0.1" stroke-width="12.24" stroke-dasharray="2448 1224 1224 2448"/>
<path d="M-108.038 778.999C23.959 1236.31 501.688 1500.03 959.001 1368.04C1416.31 1236.04 1680.03 758.31 1548.04 300.998C1416.04 -156.315 938.312 -420.036 480.999 -288.039C23.6867 -156.043 -240.034 321.687 -108.038 778.999Z" stroke="#F07127" stroke-opacity="0.1" stroke-width="13.68" stroke-dasharray="2188.8 2188.8 2188.8 2188.8 2188.8 2736"/>
<path d="M1072.11 1041C1348.81 846.536 1415.47 464.585 1221 187.889C1026.54 -88.8067 644.585 -155.468 367.889 38.9972C91.1935 233.462 24.5323 615.414 218.997 892.11C413.462 1168.81 795.414 1235.47 1072.11 1041Z" stroke="#F07127" stroke-opacity="0.1" stroke-width="9.72" stroke-dasharray="1555.2 1555.2 1555.2 1555.2 1555.2 1944"/>
<path d="M610.818 1165.58C956.319 1225.88 1285.28 994.681 1345.58 649.181C1405.88 303.681 1174.68 -25.2852 829.182 -85.5847C483.682 -145.884 154.716 85.3168 94.4163 430.817C34.1168 776.318 265.318 1105.28 610.818 1165.58Z" stroke="#F07127" stroke-opacity="0.1" stroke-width="10.08" stroke-dasharray="1612.8 1612.8 1612.8 1612.8 1612.8 2016"/>
<path d="M181.886 918.192C390.756 1215.38 801.001 1286.98 1098.19 1078.11C1395.38 869.243 1466.98 458.999 1258.11 161.807C1049.24 -135.385 638.999 -206.984 341.807 1.88578C44.6157 210.756 -26.9834 621 181.886 918.192Z" stroke="#F07127" stroke-opacity="0.1" stroke-width="10.44" stroke-dasharray="1670.4 1670.4 1670.4 1670.4 1670.4 2088"/>
<path d="M27.3899 419.118C-39.3702 801.637 216.602 1165.85 599.121 1232.61C981.639 1299.37 1345.85 1043.4 1412.61 660.878C1479.37 278.36 1223.4 -85.8522 840.881 -152.612C458.362 -219.373 94.15 36.6001 27.3899 419.118Z" stroke="#F07127" stroke-opacity="0.1" stroke-width="11.16" stroke-dasharray="2232 2232 2232 2232 2232 2232"/>
<path d="M302.685 -53.7811C-25.2513 176.696 -104.257 629.379 126.22 957.315C356.697 1285.25 809.38 1364.26 1137.32 1133.78C1465.25 903.303 1544.26 450.619 1313.78 122.683C1083.3 -205.252 630.62 -284.258 302.685 -53.7811Z" stroke="#F07127" stroke-opacity="0.1" stroke-width="11.52" stroke-dasharray="2304 2304 2304 2304 2304 2304"/>
<path d="M1249.23 10.7702C956.943 -281.514 483.057 -281.514 190.773 10.7702C-101.511 303.054 -101.511 776.94 190.773 1069.22C483.057 1361.51 956.943 1361.51 1249.23 1069.22C1541.51 776.94 1541.51 303.054 1249.23 10.7702Z" stroke="#F07127" stroke-opacity="0.1" stroke-width="11.88" stroke-dasharray="2376 2376 2376 2376 2376 2376"/>
<path d="M1513.8 539.999C1513.8 101.595 1158.4 -253.801 720 -253.801C281.597 -253.801 -73.7998 101.595 -73.7998 539.999C-73.7998 978.402 281.597 1333.8 720 1333.8C1158.4 1333.8 1513.8 978.402 1513.8 539.999Z" stroke="#F07127" stroke-opacity="0.1" stroke-width="12.6" stroke-dasharray="2520 2520 2520 2520 2520 2520"/>
<path d="M1297.34 1117.34C1616.19 798.482 1616.19 281.516 1297.34 -37.3395C978.484 -356.195 461.517 -356.195 142.662 -37.3395C-176.193 281.516 -176.193 798.482 142.662 1117.34C461.517 1436.19 978.484 1436.19 1297.34 1117.34Z" stroke="#F07127" stroke-opacity="0.1" stroke-width="12.96" stroke-dasharray="2592 2592 2592 2592 2592 2592"/>
<path d="M720 1379.16C1183.46 1379.16 1559.16 1003.45 1559.16 539.999C1559.16 76.5436 1183.46 -299.161 720 -299.161C256.545 -299.161 -119.16 76.5436 -119.16 539.999C-119.16 1003.45 256.545 1379.16 720 1379.16Z" stroke="#F07127" stroke-opacity="0.1" stroke-width="13.32" stroke-dasharray="2664 2664 2664 2664 2664 2664"/>
<path d="M-134.381 768.929C-7.94571 1240.79 477.069 1520.81 948.931 1394.38C1420.79 1267.94 1700.82 782.93 1574.38 311.068C1447.95 -160.793 962.931 -440.817 491.069 -314.382C19.208 -187.947 -260.816 297.068 -134.381 768.929Z" stroke="#F07127" stroke-opacity="0.1" stroke-width="14.04" stroke-dasharray="2808 2808 2808 2808 2808 2808"/>
</svg>
