<svg width="698" height="934" viewBox="0 0 698 934" fill="none" xmlns="http://www.w3.org/2000/svg">
<g clip-path="url(#clip0_628_1393)">
<path d="M933.096 689.58C895.144 673.705 868.505 657.855 891.884 617.367C910.67 584.833 936.483 556.476 957.571 525.415C1002.72 458.914 1035.7 404.58 1015.58 325.124C978.772 179.762 818.05 77.3749 679.181 52.0602C593.613 36.462 498.268 55.5074 422.749 97.8058C369.197 127.8 354.976 162.704 371.286 220.64C389.781 286.339 413.189 350.198 379.098 415.585C340.44 489.73 264.538 527.303 203.149 579.529C155.098 620.409 108.862 681.788 124.409 748.82C143.521 831.223 215.326 866.073 291.622 877.698C373.397 890.159 457.306 871.091 538.069 891.722C603.087 908.331 652.343 952.18 713.847 975.765C780.806 1001.44 850.444 997.949 909.193 955.046C949.219 925.816 985.494 879.805 994.637 830.196C999.659 802.945 988.197 778.672 970.892 758.793C948.731 733.337 940.226 703.654 912.167 682.136" stroke="#C1C63C" stroke-width="7" stroke-linecap="round"/>
</g>
<defs>
<clipPath id="clip0_628_1393">
<rect width="921.036" height="989.261" fill="white" transform="translate(791.318 1213.41) rotate(-149.209)"/>
</clipPath>
</defs>
</svg>
