<svg width="185" height="182" viewBox="0 0 185 182" fill="none" xmlns="http://www.w3.org/2000/svg">
<g clip-path="url(#clip0_927_94)">
<path d="M33.5021 89.6434C34.0085 89.3176 35.233 88.6644 37.1758 87.6837C39.1186 86.7031 40.876 85.8408 42.448 85.097C44.02 84.3531 46.0575 83.3726 48.5608 82.1551C51.0642 80.9379 52.9846 80.0051 54.3222 79.3567C55.66 78.7081 57.0716 78.0268 58.557 77.3128C60.0428 76.5985 62.5781 75.3763 66.1628 73.6462C69.7476 71.916 73.3153 70.2306 76.8658 68.5897C80.4162 66.9488 83.0675 65.734 84.8194 64.9453C86.5712 64.1565 88.0186 63.4982 89.1613 62.9708C90.3041 62.4432 92.2307 61.5958 94.9409 60.4289C97.6513 59.2619 99.8054 58.3442 101.403 57.6758C103 57.0078 104.545 56.3734 106.036 55.7726C107.528 55.172 108.975 54.5893 110.377 54.0244C111.78 53.4593 113.951 52.6262 116.89 51.5252C119.829 50.4241 122.284 49.5295 124.254 48.8411C126.224 48.153 127.691 47.6445 128.654 47.3154C129.617 46.9864 130.581 46.6637 131.547 46.347C132.512 46.03 133.836 45.6071 135.519 45.0781C137.202 44.5491 139.065 43.9715 141.109 43.345" stroke="#9CA11C" stroke-width="2.40238" stroke-linecap="round" stroke-linejoin="round"/>
<path d="M39.0208 105.544C39.3113 105.339 40.8031 104.334 43.4962 102.53C46.1896 100.726 49.5709 98.6526 53.6405 96.3109C57.7102 93.9692 60.7934 92.2237 62.8899 91.0747C64.9868 89.9255 66.5499 89.0538 67.5792 88.4592C68.6087 87.8645 71.1114 86.5258 75.0873 84.443C79.0632 82.36 82.2357 80.7321 84.6047 79.5597C86.9736 78.3872 88.9149 77.4302 90.4284 76.6887C91.9418 75.9475 93.857 75.0266 96.174 73.9262C98.4914 72.8256 100.822 71.753 103.166 70.7084C105.511 69.6639 107.292 68.8744 108.509 68.3399C109.727 67.8058 111.272 67.1435 113.145 66.3531C115.018 65.5632 116.974 64.769 119.013 63.9708C121.052 63.1723 122.858 62.4705 124.431 61.8653C126.003 61.2601 128.201 60.4553 131.024 59.4513C133.847 58.4473 136.473 57.5579 138.903 56.783C141.334 56.0084 143.725 55.2692 146.079 54.5657C148.432 53.862 150.605 53.2442 152.597 52.7125C154.588 52.1809 156.767 51.6083 159.132 50.9947" stroke="#9CA11C" stroke-width="2.40238" stroke-linecap="round" stroke-linejoin="round"/>
<path d="M22.8241 139.399C23.2405 139.077 25.2071 137.594 28.7235 134.951C32.2398 132.308 36.0386 129.625 40.1201 126.902C44.2017 124.178 47.3647 122.106 49.6092 120.686C51.8534 119.267 53.4768 118.228 54.479 117.569C55.4813 116.909 58.1451 115.276 62.4706 112.667C66.7961 110.058 70.3283 107.985 73.0672 106.447C75.8064 104.909 77.8261 103.77 79.1262 103.03C80.4264 102.29 82.542 101.145 85.4725 99.595C88.4031 98.0451 90.639 96.8686 92.1802 96.0653C93.7216 95.262 95.5651 94.3284 97.711 93.2642C99.8564 92.2003 101.506 91.393 102.659 90.842C103.811 90.2911 104.846 89.7974 105.761 89.3609C106.677 88.9245 108.046 88.2834 109.868 87.4376C111.689 86.5921 113.952 85.5788 116.656 84.398C119.359 83.2175 121.692 82.2285 123.654 81.4307C125.616 80.6334 127.7 79.7821 129.906 78.8768C132.113 77.9714 135.359 76.7566 139.644 75.2321C143.93 73.7079 147.229 72.5723 149.541 71.8254C151.853 71.0783 153.834 70.4463 155.483 69.929C157.133 69.412 159.281 68.7825 161.928 68.0403C164.575 67.2977 166.591 66.7404 167.974 66.3678C169.358 65.9953 170.451 65.7035 171.254 65.4931C172.058 65.2832 173.246 64.9793 174.82 64.583C176.393 64.1863 178.543 63.6499 181.271 62.9747" stroke="#9CA11C" stroke-width="2.40238" stroke-linecap="round" stroke-linejoin="round"/>
</g>
<defs>
<clipPath id="clip0_927_94">
<rect width="86.0155" height="172.935" fill="white" transform="translate(124.736) rotate(46.1609)"/>
</clipPath>
</defs>
</svg>
