<svg width="386" height="193" viewBox="0 0 386 193" fill="none" xmlns="http://www.w3.org/2000/svg">
<path d="M212.179 19.7426C199.78 13.7251 189.907 9.58012 175.039 8.56108C162.542 7.70454 149.869 7.97387 137.435 9.15217C101.543 12.5537 68.1975 26.9962 42.9064 44.9112C15.9511 64.0047 -1.08407 89.8718 2.46634 117.25C6.73625 150.177 41.1147 173.769 83.6189 184.047C139.032 197.447 205.285 190.015 258.28 174.19C306.492 159.793 365.037 132.751 381.073 94.9015C395.042 61.929 356.477 31.0577 319.146 15.843C288.208 3.23407 251.904 -2.16211 217.152 5.61384C191.519 11.3494 165.819 20.6778 145.085 32.8533C121.732 46.5662 106.027 64.1353 89.2589 81.6962" stroke="#A24819" stroke-width="4" stroke-linecap="round"/>
</svg>
