<svg width="161" height="143" viewBox="0 0 161 143" fill="none" xmlns="http://www.w3.org/2000/svg">
<path d="M43.6591 18.6146C39.29 19.9888 35.4759 21.2235 32.0879 22.5533M32.0879 22.5533C22.811 26.1945 16.7277 30.5481 11.1845 40.4276C7.47324 47.0418 5.30418 54.2621 3.44723 61.4496C-1.3488 80.0133 6.25632 93.6538 19.1661 107.874C38.1933 128.833 70.4811 145.65 101.684 140.07C124.39 136.009 145.099 120.227 154.703 101.89C163.212 85.6439 161.512 69.4992 158.731 52.2447C152.326 12.5039 111.397 -7.15151 70.4255 2.3726C58.6115 5.11886 48.3029 9.92517 39.1773 17.1353C36.815 19.0015 34.5248 20.8542 32.0879 22.5533ZM32.0879 22.5533C30.6228 23.5747 29.1049 24.5405 27.4866 25.4206C17.4706 30.8666 14.2132 43.1813 10.3669 52.1203" stroke="#A24819" stroke-width="2.69198" stroke-dasharray="19.44 19.44"/>
</svg>
