<svg xmlns="http://www.w3.org/2000/svg" width="253" height="85" fill="none" xmlns:v="https://vecta.io/nano"><use href="#AD" fill="url(#A)"/><use href="#AD" y="18" fill="url(#B)"/><use href="#AD" y="36" fill="url(#C)"/><use href="#AD" y="54" fill="url(#D)"/><use href="#AD" y="72" fill="url(#E)"/><use href="#AD" x="24" fill="url(#F)"/><use href="#AD" x="24" y="18" fill="url(#G)"/><use href="#AD" x="24" y="36" fill="url(#H)"/><use href="#AD" x="24" y="54" fill="url(#I)"/><use href="#AD" x="24" y="72" fill="url(#J)"/><use href="#AD" x="48" fill="url(#K)"/><use href="#AD" x="48" y="18" fill="url(#L)"/><use href="#AD" x="48" y="36" fill="url(#M)"/><use href="#AD" x="48" y="54" fill="url(#N)"/><use href="#AD" x="48" y="72" fill="url(#O)"/><use href="#AD" x="72" fill="url(#P)"/><use href="#AD" x="72" y="18" fill="url(#Q)"/><use href="#AD" x="72" y="36" fill="url(#R)"/><use href="#AD" x="72" y="54" fill="url(#S)"/><use href="#AD" x="72" y="72" fill="url(#T)"/><use href="#AD" x="96" fill="url(#U)"/><use href="#AD" x="96" y="18" fill="url(#V)"/><use href="#AD" x="96" y="36" fill="url(#W)"/><use href="#AD" x="96" y="54" fill="url(#X)"/><use href="#AD" x="96" y="72" fill="url(#Y)"/><use href="#AD" x="120" fill="url(#Z)"/><use href="#AD" x="120" y="18" fill="url(#a)"/><use href="#AD" x="120" y="36" fill="url(#b)"/><use href="#AD" x="120" y="54" fill="url(#c)"/><use href="#AD" x="120" y="72" fill="url(#d)"/><use href="#AD" x="144" fill="url(#e)"/><use href="#AD" x="144" y="18" fill="url(#f)"/><use href="#AD" x="144" y="36" fill="url(#g)"/><use href="#AD" x="144" y="54" fill="url(#h)"/><use href="#AD" x="144" y="72" fill="url(#i)"/><use href="#AD" x="168" fill="url(#j)"/><use href="#AD" x="168" y="18" fill="url(#k)"/><use href="#AD" x="168" y="36" fill="url(#l)"/><use href="#AD" x="168" y="54" fill="url(#m)"/><use href="#AD" x="168" y="72" fill="url(#n)"/><use href="#AD" x="192" fill="url(#o)"/><use href="#AD" x="192" y="18" fill="url(#p)"/><use href="#AD" x="192" y="36" fill="url(#q)"/><use href="#AD" x="192" y="54" fill="url(#r)"/><use href="#AD" x="192" y="72" fill="url(#s)"/><use href="#AD" x="216" fill="url(#t)"/><use href="#AD" x="216" y="18" fill="url(#u)"/><use href="#AD" x="216" y="36" fill="url(#v)"/><use href="#AD" x="216" y="54" fill="url(#w)"/><use href="#AD" x="216" y="72" fill="url(#x)"/><use href="#AD" x="240" fill="url(#y)"/><use href="#AD" x="240" y="18" fill="url(#z)"/><use href="#AD" x="240" y="36" fill="url(#AA)"/><use href="#AD" x="240" y="54" fill="url(#AB)"/><use href="#AD" x="240" y="72" fill="url(#AC)"/><defs><linearGradient id="A" x1="17.5" y1="-53.5" x2="290.5" y2="147" href="#AE"><stop stop-color="#9ca11c"/><stop offset="1" stop-color="#f8fabf"/></linearGradient><linearGradient id="B" x1="17.5" y1="-71.5" x2="290.5" y2="129" href="#AE"><stop stop-color="#9ca11c"/><stop offset="1" stop-color="#f8fabf"/></linearGradient><linearGradient id="C" x1="17.5" y1="-89.5" x2="290.5" y2="111" href="#AE"><stop stop-color="#9ca11c"/><stop offset="1" stop-color="#f8fabf"/></linearGradient><linearGradient id="D" x1="17.5" y1="-107.5" x2="290.5" y2="93" href="#AE"><stop stop-color="#9ca11c"/><stop offset="1" stop-color="#f8fabf"/></linearGradient><linearGradient id="E" x1="17.5" y1="-125.5" x2="290.5" y2="75" href="#AE"><stop stop-color="#9ca11c"/><stop offset="1" stop-color="#f8fabf"/></linearGradient><linearGradient id="F" x1="-6.5" y1="-53.5" x2="266.5" y2="147" href="#AE"><stop stop-color="#9ca11c"/><stop offset="1" stop-color="#f8fabf"/></linearGradient><linearGradient id="G" x1="-6.5" y1="-71.5" x2="266.5" y2="129" href="#AE"><stop stop-color="#9ca11c"/><stop offset="1" stop-color="#f8fabf"/></linearGradient><linearGradient id="H" x1="-6.5" y1="-89.5" x2="266.5" y2="111" href="#AE"><stop stop-color="#9ca11c"/><stop offset="1" stop-color="#f8fabf"/></linearGradient><linearGradient id="I" x1="-6.5" y1="-107.5" x2="266.5" y2="93" href="#AE"><stop stop-color="#9ca11c"/><stop offset="1" stop-color="#f8fabf"/></linearGradient><linearGradient id="J" x1="-6.5" y1="-125.5" x2="266.5" y2="75" href="#AE"><stop stop-color="#9ca11c"/><stop offset="1" stop-color="#f8fabf"/></linearGradient><linearGradient id="K" x1="-30.5" y1="-53.5" x2="242.5" y2="147" href="#AE"><stop stop-color="#9ca11c"/><stop offset="1" stop-color="#f8fabf"/></linearGradient><linearGradient id="L" x1="-30.5" y1="-71.5" x2="242.5" y2="129" href="#AE"><stop stop-color="#9ca11c"/><stop offset="1" stop-color="#f8fabf"/></linearGradient><linearGradient id="M" x1="-30.5" y1="-89.5" x2="242.5" y2="111" href="#AE"><stop stop-color="#9ca11c"/><stop offset="1" stop-color="#f8fabf"/></linearGradient><linearGradient id="N" x1="-30.5" y1="-107.5" x2="242.5" y2="93" href="#AE"><stop stop-color="#9ca11c"/><stop offset="1" stop-color="#f8fabf"/></linearGradient><linearGradient id="O" x1="-30.5" y1="-125.5" x2="242.5" y2="75" href="#AE"><stop stop-color="#9ca11c"/><stop offset="1" stop-color="#f8fabf"/></linearGradient><linearGradient id="P" x1="-54.5" y1="-53.5" x2="218.5" y2="147" href="#AE"><stop stop-color="#9ca11c"/><stop offset="1" stop-color="#f8fabf"/></linearGradient><linearGradient id="Q" x1="-54.5" y1="-71.5" x2="218.5" y2="129" href="#AE"><stop stop-color="#9ca11c"/><stop offset="1" stop-color="#f8fabf"/></linearGradient><linearGradient id="R" x1="-54.5" y1="-89.5" x2="218.5" y2="111" href="#AE"><stop stop-color="#9ca11c"/><stop offset="1" stop-color="#f8fabf"/></linearGradient><linearGradient id="S" x1="-54.5" y1="-107.5" x2="218.5" y2="93" href="#AE"><stop stop-color="#9ca11c"/><stop offset="1" stop-color="#f8fabf"/></linearGradient><linearGradient id="T" x1="-54.5" y1="-125.5" x2="218.5" y2="75" href="#AE"><stop stop-color="#9ca11c"/><stop offset="1" stop-color="#f8fabf"/></linearGradient><linearGradient id="U" x1="-78.5" y1="-53.5" x2="194.5" y2="147" href="#AE"><stop stop-color="#9ca11c"/><stop offset="1" stop-color="#f8fabf"/></linearGradient><linearGradient id="V" x1="-78.5" y1="-71.5" x2="194.5" y2="129" href="#AE"><stop stop-color="#9ca11c"/><stop offset="1" stop-color="#f8fabf"/></linearGradient><linearGradient id="W" x1="-78.5" y1="-89.5" x2="194.5" y2="111" href="#AE"><stop stop-color="#9ca11c"/><stop offset="1" stop-color="#f8fabf"/></linearGradient><linearGradient id="X" x1="-78.5" y1="-107.5" x2="194.5" y2="93" href="#AE"><stop stop-color="#9ca11c"/><stop offset="1" stop-color="#f8fabf"/></linearGradient><linearGradient id="Y" x1="-78.5" y1="-125.5" x2="194.5" y2="75" href="#AE"><stop stop-color="#9ca11c"/><stop offset="1" stop-color="#f8fabf"/></linearGradient><linearGradient id="Z" x1="-102.5" y1="-53.5" x2="170.5" y2="147" href="#AE"><stop stop-color="#9ca11c"/><stop offset="1" stop-color="#f8fabf"/></linearGradient><linearGradient id="a" x1="-102.5" y1="-71.5" x2="170.5" y2="129" href="#AE"><stop stop-color="#9ca11c"/><stop offset="1" stop-color="#f8fabf"/></linearGradient><linearGradient id="b" x1="-102.5" y1="-89.5" x2="170.5" y2="111" href="#AE"><stop stop-color="#9ca11c"/><stop offset="1" stop-color="#f8fabf"/></linearGradient><linearGradient id="c" x1="-102.5" y1="-107.5" x2="170.5" y2="93" href="#AE"><stop stop-color="#9ca11c"/><stop offset="1" stop-color="#f8fabf"/></linearGradient><linearGradient id="d" x1="-102.5" y1="-125.5" x2="170.5" y2="75" href="#AE"><stop stop-color="#9ca11c"/><stop offset="1" stop-color="#f8fabf"/></linearGradient><linearGradient id="e" x1="-126.5" y1="-53.5" x2="146.5" y2="147" href="#AE"><stop stop-color="#9ca11c"/><stop offset="1" stop-color="#f8fabf"/></linearGradient><linearGradient id="f" x1="-126.5" y1="-71.5" x2="146.5" y2="129" href="#AE"><stop stop-color="#9ca11c"/><stop offset="1" stop-color="#f8fabf"/></linearGradient><linearGradient id="g" x1="-126.5" y1="-89.5" x2="146.5" y2="111" href="#AE"><stop stop-color="#9ca11c"/><stop offset="1" stop-color="#f8fabf"/></linearGradient><linearGradient id="h" x1="-126.5" y1="-107.5" x2="146.5" y2="93" href="#AE"><stop stop-color="#9ca11c"/><stop offset="1" stop-color="#f8fabf"/></linearGradient><linearGradient id="i" x1="-126.5" y1="-125.5" x2="146.5" y2="75" href="#AE"><stop stop-color="#9ca11c"/><stop offset="1" stop-color="#f8fabf"/></linearGradient><linearGradient id="j" x1="-150.5" y1="-53.5" x2="122.5" y2="147" href="#AE"><stop stop-color="#9ca11c"/><stop offset="1" stop-color="#f8fabf"/></linearGradient><linearGradient id="k" x1="-150.5" y1="-71.5" x2="122.5" y2="129" href="#AE"><stop stop-color="#9ca11c"/><stop offset="1" stop-color="#f8fabf"/></linearGradient><linearGradient id="l" x1="-150.5" y1="-89.5" x2="122.5" y2="111" href="#AE"><stop stop-color="#9ca11c"/><stop offset="1" stop-color="#f8fabf"/></linearGradient><linearGradient id="m" x1="-150.5" y1="-107.5" x2="122.5" y2="93" href="#AE"><stop stop-color="#9ca11c"/><stop offset="1" stop-color="#f8fabf"/></linearGradient><linearGradient id="n" x1="-150.5" y1="-125.5" x2="122.5" y2="75" href="#AE"><stop stop-color="#9ca11c"/><stop offset="1" stop-color="#f8fabf"/></linearGradient><linearGradient id="o" x1="-174.5" y1="-53.5" x2="98.5" y2="147" href="#AE"><stop stop-color="#9ca11c"/><stop offset="1" stop-color="#f8fabf"/></linearGradient><linearGradient id="p" x1="-174.5" y1="-71.5" x2="98.5" y2="129" href="#AE"><stop stop-color="#9ca11c"/><stop offset="1" stop-color="#f8fabf"/></linearGradient><linearGradient id="q" x1="-174.5" y1="-89.5" x2="98.5" y2="111" href="#AE"><stop stop-color="#9ca11c"/><stop offset="1" stop-color="#f8fabf"/></linearGradient><linearGradient id="r" x1="-174.5" y1="-107.5" x2="98.5" y2="93" href="#AE"><stop stop-color="#9ca11c"/><stop offset="1" stop-color="#f8fabf"/></linearGradient><linearGradient id="s" x1="-174.5" y1="-125.5" x2="98.5" y2="75" href="#AE"><stop stop-color="#9ca11c"/><stop offset="1" stop-color="#f8fabf"/></linearGradient><linearGradient id="t" x1="-198.5" y1="-53.5" x2="74.5" y2="147" href="#AE"><stop stop-color="#9ca11c"/><stop offset="1" stop-color="#f8fabf"/></linearGradient><linearGradient id="u" x1="-198.5" y1="-71.5" x2="74.5" y2="129" href="#AE"><stop stop-color="#9ca11c"/><stop offset="1" stop-color="#f8fabf"/></linearGradient><linearGradient id="v" x1="-198.5" y1="-89.5" x2="74.5" y2="111" href="#AE"><stop stop-color="#9ca11c"/><stop offset="1" stop-color="#f8fabf"/></linearGradient><linearGradient id="w" x1="-198.5" y1="-107.5" x2="74.5" y2="93" href="#AE"><stop stop-color="#9ca11c"/><stop offset="1" stop-color="#f8fabf"/></linearGradient><linearGradient id="x" x1="-198.5" y1="-125.5" x2="74.5" y2="75" href="#AE"><stop stop-color="#9ca11c"/><stop offset="1" stop-color="#f8fabf"/></linearGradient><linearGradient id="y" x1="-222.5" y1="-53.5" x2="50.5" y2="147" href="#AE"><stop stop-color="#9ca11c"/><stop offset="1" stop-color="#f8fabf"/></linearGradient><linearGradient id="z" x1="-222.5" y1="-71.5" x2="50.5" y2="129" href="#AE"><stop stop-color="#9ca11c"/><stop offset="1" stop-color="#f8fabf"/></linearGradient><linearGradient id="AA" x1="-222.5" y1="-89.5" x2="50.5" y2="111" href="#AE"><stop stop-color="#9ca11c"/><stop offset="1" stop-color="#f8fabf"/></linearGradient><linearGradient id="AB" x1="-222.5" y1="-107.5" x2="50.5" y2="93" href="#AE"><stop stop-color="#9ca11c"/><stop offset="1" stop-color="#f8fabf"/></linearGradient><linearGradient id="AC" x1="-222.5" y1="-125.5" x2="50.5" y2="75" href="#AE"><stop stop-color="#9ca11c"/><stop offset="1" stop-color="#f8fabf"/></linearGradient><path id="AD" d="M13 6.5a6.5 6.5 0 1 1-13 0 6.5 6.5 0 1 1 13 0z"/><linearGradient id="AE" gradientUnits="userSpaceOnUse"/></defs></svg>