<svg width="41" height="27" viewBox="0 0 41 27" fill="none" xmlns="http://www.w3.org/2000/svg">
<g clip-path="url(#clip0_726_301)">
<path d="M3.71563 0H37.2203C39.3344 0 41 1.66562 41 3.65156V23.2547C41 25.3047 39.3344 26.9062 37.2844 26.9062H3.71563C1.66563 26.9062 0 25.2406 0 23.2547V3.65156C0 1.66562 1.66563 0 3.71563 0Z" fill="white"/>
<path d="M3.71563 26.9062H13.6453V0H3.71563C1.66563 0 0 1.66562 0 3.65156V23.3188C0 25.3047 1.66563 26.9703 3.71563 26.9062Z" fill="#008751"/>
<path d="M37.2842 26.9062H27.3545V0H37.2842C39.3342 0 40.9998 1.66562 40.9998 3.65156V23.3188C40.9998 25.3047 39.3342 26.9703 37.2842 26.9062Z" fill="#008751"/>
</g>
<defs>
<clipPath id="clip0_726_301">
<rect width="41" height="26.9062" fill="white"/>
</clipPath>
</defs>
</svg>
