<svg xmlns="http://www.w3.org/2000/svg" width="40" height="40" fill="none" xmlns:v="https://vecta.io/nano"><path d="M20.457 30.874c-3.243 0-6.273-1.244-8.532-3.501l-.399-.399c-2.289-2.29-3.533-5.364-3.501-8.654.032-3.268 1.315-6.333 3.612-8.629l6.229-6.231a1.25 1.25 0 0 1 1.714 0L35.44 19.317c.227.227.355.536.355.857s-.128.63-.355.858l-6.23 6.229c-2.329 2.33-5.437 3.613-8.752 3.613zM18.725 6.031l-5.372 5.372a9.89 9.89 0 0 0-2.902 6.939c-.026 2.634.966 5.09 2.791 6.916l.399.399c1.8 1.8 4.221 2.791 6.817 2.791 2.666 0 5.166-1.03 7.039-2.903l5.371-5.372L18.725 6.031z" fill="#9ca11c"/><path d="M15.37 13.42c-.155 0-.311-.059-.429-.178-.236-.237-.236-.62.001-.857l.428-.429c.237-.237.621-.237.858 0s.236.621-.001.857l-.429.428a.6.6 0 0 1-.429.178zm-1.932 7.682c-.27 0-.516-.181-.587-.455-.584-2.263-.244-4.711.934-6.718.169-.288.541-.386.829-.215s.385.541.216.829a7.73 7.73 0 0 0-.806 5.801c.084.324-.111.655-.435.739a.56.56 0 0 1-.152.019z" fill="#4c4d16"/><path d="M2.313 40a1.26 1.26 0 0 1-.19-.015 1.21 1.21 0 0 1-1.009-1.383c.038-.247.996-6.099 5.371-8.246 3.076-1.508 4.062-5.039 4.071-5.074.174-.644.838-1.029 1.483-.856a1.21 1.21 0 0 1 .861 1.478c-.05.188-1.258 4.625-5.347 6.63-3.234 1.586-4.037 6.395-4.045 6.444A1.21 1.21 0 0 1 2.313 40z" fill="#9ca11c"/><path d="M23.012 9.814a1.21 1.21 0 0 1-.857-2.068l7.39-7.39a1.21 1.21 0 0 1 1.714 0c.473.473.473 1.241 0 1.714l-7.39 7.39c-.236.237-.547.355-.857.355zm7.284 7.286c-.31 0-.619-.118-.856-.355a1.21 1.21 0 0 1 0-1.714l7.39-7.39c.473-.473 1.241-.473 1.714 0s.473 1.241 0 1.714l-7.39 7.39c-.235.237-.546.355-.857.355z" fill="#4c4d16"/></svg>