<svg width="614" height="305" viewBox="0 0 614 305" fill="none" xmlns="http://www.w3.org/2000/svg">
<path d="M288.257 -41.3875C271.053 -63.1475 256.801 -79.0925 226.963 -81.9366C201.833 -84.332 175.105 -82.1456 148.76 -75.5635C105.477 -64.7491 47.816 -36.3437 21.1884 6.52949C-17.1797 68.3058 10.8519 133.604 44.7984 175.021C65.3819 200.133 75.624 225.461 83.9326 258.171C92.6508 292.493 109.897 318.529 136.395 339.551C206.572 395.226 324.556 363.164 417.137 355.598C455.063 352.499 495.147 347.221 530.774 322.947C570.264 296.035 597.705 264.565 619.808 223.009C662.6 142.547 647.536 53.5009 591.098 6.58444C535.592 -39.5578 443.5 -12.2229 370.443 -13.8429C322.788 -14.8996 303.647 -39.0928 270.864 -63.6098" stroke="#F8FABF" stroke-width="3.51341" stroke-linecap="round"/>
</svg>
