<svg width="82" height="84" viewBox="0 0 82 84" fill="none" xmlns="http://www.w3.org/2000/svg">
<g clip-path="url(#clip0_666_6775)">
<path d="M41.582 1.21582C39.7866 5.82458 40.3856 10.0975 40.5597 14.9631C40.7858 21.281 40.9778 27.5591 41.4367 33.8659" stroke="#9CA11C" stroke-width="1.90596" stroke-linecap="round"/>
<path d="M41.0651 45.1797C39.7505 51.5095 40.3418 57.6793 40.8893 64.079C41.4093 70.1567 42.1389 76.2116 42.8566 82.2681" stroke="#9CA11C" stroke-width="1.90596" stroke-linecap="round"/>
<path d="M1.13379 46.6648C5.16662 44.8704 8.96847 44.7975 13.3089 44.503C19.8758 44.0573 26.2022 43.209 32.6557 41.9521" stroke="#9CA11C" stroke-width="1.90596" stroke-linecap="round"/>
<path d="M47.2627 40.0955C58.4137 39.3815 69.3893 37.5301 80.447 35.9961" stroke="#9CA11C" stroke-width="1.90596" stroke-linecap="round"/>
<path d="M49.3428 34.6511L52.9169 28.167" stroke="#9CA11C" stroke-width="1.90596" stroke-linecap="round"/>
<path d="M32.9786 50.3506L28.6387 54.6393" stroke="#9CA11C" stroke-width="1.90596" stroke-linecap="round"/>
<path d="M52.6357 48.666L56.9502 51.5762" stroke="#9CA11C" stroke-width="1.90596" stroke-linecap="round"/>
<path d="M31.5486 30.8469C26.8737 29.4321 22.7139 27.3541 18.2734 25.3584" stroke="#9CA11C" stroke-width="1.90596" stroke-linecap="round"/>
</g>
<defs>
<clipPath id="clip0_666_6775">
<rect width="82" height="84" fill="white"/>
</clipPath>
</defs>
</svg>
