<svg xmlns="http://www.w3.org/2000/svg" width="28" height="29" fill="none" xmlns:v="https://vecta.io/nano"><path d="M23.299 18.821h-5.867c-.18 0-.337-.126-.375-.303a10.42 10.42 0 0 0-9.803-8.246c-.211-.008-.376-.186-.368-.397s.187-.375.397-.368c2.489.095 4.907 1.037 6.811 2.655 1.802 1.531 3.088 3.614 3.642 5.894h5.118a16.03 16.03 0 0 0-4.537-8.822c-3.062-3.063-7.135-4.75-11.467-4.75H5.663v5.399c0 .212-.171.383-.383.383s-.383-.171-.383-.383V4.101c0-.212.171-.383.383-.383h1.571c4.537 0 8.801 1.766 12.008 4.974a16.79 16.79 0 0 1 4.819 9.696c.015.109-.019.22-.091.303a.38.38 0 0 1-.287.131z" fill="#9ca11c"/><g fill="#4c4d16"><path d="M4.721 12.053h-2.9c-.528 0-.942-.332-.942-.757V2.115c0-.425.414-.757.942-.757h2.9c.528 0 .942.333.942.757v9.181c.001.425-.413.757-.942.757zm-3.077-.807a.36.36 0 0 0 .177.041h2.9c.085 0 .147-.023.177-.041V2.164c-.031-.018-.092-.041-.177-.041h-2.9c-.085 0-.147.023-.177.041v9.083zm12.27-3.405c-.061 0-.123-.015-.18-.045a14.43 14.43 0 0 0-4.881-1.578c-.209-.028-.356-.221-.328-.431s.221-.356.431-.328c1.809.246 3.537.805 5.138 1.661.187.1.256.332.157.518a.38.38 0 0 1-.337.203zm12.403 14.372H14.628c-.444 0-.805-.361-.805-.804V18.86c0-.444.361-.804.805-.804h11.688c.444 0 .804.361.804.804v2.549c0 .443-.361.804-.804.804zm-11.688-3.392c-.021 0-.039.017-.039.038v2.549c0 .021.017.038.039.038h11.688c.021 0 .038-.017.038-.038V18.86c0-.021-.018-.038-.038-.038H14.628z"/><path d="M24.984 27.643H15.96c-.212 0-.383-.171-.383-.383v-5.43c0-.212.171-.383.383-.383h9.024c.212 0 .383.171.383.383v1.131c0 .212-.171.383-.383.383s-.383-.171-.383-.383v-.748h-8.258v4.664h8.258v-.839c0-.212.171-.383.383-.383s.383.171.383.383v1.222c0 .212-.172.383-.383.383zm0-2.715a.38.38 0 0 1-.075-.007.43.43 0 0 1-.072-.022.35.35 0 0 1-.066-.035.41.41 0 0 1-.058-.048c-.018-.018-.034-.038-.048-.058a.38.38 0 0 1-.036-.066.41.41 0 0 1-.022-.072c-.005-.025-.007-.05-.007-.074s.002-.05.007-.075a.41.41 0 0 1 .022-.072.39.39 0 0 1 .036-.066.33.33 0 0 1 .048-.058c.019-.018.037-.034.058-.048a.35.35 0 0 1 .066-.035.4.4 0 0 1 .072-.022.38.38 0 0 1 .149 0 .4.4 0 0 1 .072.022c.023.01.045.021.066.035a.35.35 0 0 1 .058.048.41.41 0 0 1 .048.058c.014.021.025.043.035.066s.017.047.022.072.008.05.008.075-.003.05-.008.074-.012.049-.022.072-.021.045-.035.066a.38.38 0 0 1-.048.058.45.45 0 0 1-.058.048c-.021.014-.043.025-.066.035a.41.41 0 0 1-.072.022c-.025.005-.05.007-.074.007z"/></g><path d="M16.013 20.381a.38.38 0 0 1-.075-.007c-.025-.005-.048-.012-.072-.022a.43.43 0 0 1-.066-.036c-.021-.014-.041-.03-.058-.047s-.033-.037-.048-.058a.38.38 0 0 1-.035-.066.37.37 0 0 1-.022-.072c-.005-.025-.008-.05-.008-.075s.003-.05.008-.075.012-.048.022-.072.021-.045.035-.066a.38.38 0 0 1 .048-.059c.071-.071.17-.112.271-.112s.2.041.271.112.112.17.112.271c0 .025-.003.05-.008.075a.37.37 0 0 1-.022.072.35.35 0 0 1-.035.066c-.014.021-.03.041-.048.058s-.037.034-.058.047-.043.026-.066.036a.43.43 0 0 1-.072.022.38.38 0 0 1-.075.007zm1.783 0a.38.38 0 0 1-.074-.007.4.4 0 0 1-.072-.022.38.38 0 0 1-.124-.084.41.41 0 0 1-.048-.058c-.014-.021-.025-.043-.035-.066s-.017-.047-.022-.072a.38.38 0 0 1-.007-.075.39.39 0 0 1 .007-.075c.005-.024.013-.048.022-.072a.32.32 0 0 1 .035-.066.39.39 0 0 1 .048-.058.45.45 0 0 1 .058-.048.35.35 0 0 1 .066-.035.43.43 0 0 1 .072-.022c.049-.01.1-.01.149 0 .025.005.049.012.072.022a.38.38 0 0 1 .066.035.41.41 0 0 1 .058.048c.018.017.034.037.048.058s.026.043.036.066.017.048.022.072.007.05.007.075a.38.38 0 0 1-.007.075c-.005.025-.012.049-.022.072a.39.39 0 0 1-.036.066c-.014.021-.029.041-.048.058s-.037.034-.058.048a.43.43 0 0 1-.066.036.4.4 0 0 1-.072.022.38.38 0 0 1-.075.007zm1.784 0c-.101 0-.2-.041-.271-.112-.018-.017-.034-.037-.048-.058a.38.38 0 0 1-.035-.066.36.36 0 0 1-.022-.072c-.005-.025-.008-.05-.008-.075s.003-.05.008-.075.012-.048.022-.072.021-.045.035-.066.03-.041.048-.058a.41.41 0 0 1 .058-.048.38.38 0 0 1 .066-.035c.023-.01.047-.017.072-.022a.38.38 0 0 1 .15 0c.024.005.048.012.072.022a.36.36 0 0 1 .066.035c.021.014.041.03.058.048a.39.39 0 0 1 .048.058.36.36 0 0 1 .035.066c.01.024.017.048.022.072s.008.05.008.075-.003.05-.008.075a.36.36 0 0 1-.022.072.35.35 0 0 1-.035.066.41.41 0 0 1-.048.058c-.071.071-.17.112-.271.112zm1.783 0c-.025 0-.05-.002-.074-.007a.4.4 0 0 1-.072-.022.38.38 0 0 1-.124-.084.45.45 0 0 1-.048-.058.38.38 0 0 1-.035-.066.4.4 0 0 1-.022-.072c-.005-.025-.008-.05-.008-.075s.003-.05.008-.075a.43.43 0 0 1 .022-.072c.01-.023.021-.045.035-.066s.03-.041.048-.058a.41.41 0 0 1 .058-.048.35.35 0 0 1 .066-.035.43.43 0 0 1 .072-.022c.049-.01.1-.01.149 0 .025.005.049.012.072.022a.38.38 0 0 1 .124.083.38.38 0 0 1 .048.058.35.35 0 0 1 .035.066.43.43 0 0 1 .022.072.39.39 0 0 1 .007.075.38.38 0 0 1-.007.075.4.4 0 0 1-.022.072c-.01.023-.021.045-.035.066s-.03.041-.048.058a.45.45 0 0 1-.058.048.43.43 0 0 1-.066.036.4.4 0 0 1-.072.022.38.38 0 0 1-.075.007zm1.785 0a.38.38 0 0 1-.075-.007.4.4 0 0 1-.072-.022.43.43 0 0 1-.066-.036.38.38 0 0 1-.106-.106c-.014-.021-.026-.043-.036-.066a.4.4 0 0 1-.021-.072.32.32 0 0 1-.008-.075.35.35 0 0 1 .008-.075.49.49 0 0 1 .021-.072c.009-.024.022-.045.036-.066s.03-.041.048-.058a.55.55 0 0 1 .058-.048.38.38 0 0 1 .066-.035.37.37 0 0 1 .072-.022c.125-.025.256.016.346.105.071.072.112.17.112.271 0 .025-.003.05-.008.075s-.012.049-.022.072-.021.045-.035.066-.03.041-.047.058a.38.38 0 0 1-.059.048.42.42 0 0 1-.066.036.43.43 0 0 1-.072.022.38.38 0 0 1-.075.007zm1.783 0c-.101 0-.199-.041-.271-.112a.39.39 0 0 1-.048-.058.3.3 0 0 1-.035-.066.43.43 0 0 1-.022-.072c-.005-.025-.008-.05-.008-.075s.003-.05.008-.075a.38.38 0 0 1 .022-.072.36.36 0 0 1 .035-.066c.014-.021.03-.041.048-.058.089-.089.221-.13.346-.105a.37.37 0 0 1 .072.022.38.38 0 0 1 .066.035c.021.014.041.03.058.048s.034.037.047.058a.36.36 0 0 1 .036.066c.009.024.017.048.022.072a.39.39 0 0 1 .007.075.38.38 0 0 1-.007.075.41.41 0 0 1-.022.072c-.01.023-.021.045-.036.066s-.029.041-.047.058a.45.45 0 0 1-.058.048.43.43 0 0 1-.066.036.4.4 0 0 1-.072.022.38.38 0 0 1-.075.007zM3.271 4.685c-.025 0-.05-.003-.075-.008a.36.36 0 0 1-.072-.022.35.35 0 0 1-.066-.035A.38.38 0 0 1 3 4.572c-.071-.071-.112-.17-.112-.271 0-.025.003-.05.008-.075s.012-.049.022-.072.021-.045.035-.066a.38.38 0 0 1 .106-.106.35.35 0 0 1 .066-.035.36.36 0 0 1 .072-.022c.125-.025.256.015.346.104.071.071.112.17.112.271s-.041.2-.112.271-.17.112-.271.112zm0 2.403a.38.38 0 0 1-.075-.007.4.4 0 0 1-.072-.022c-.023-.01-.045-.022-.066-.036A.38.38 0 0 1 3 6.975c-.071-.071-.112-.17-.112-.271s.041-.199.112-.271a.45.45 0 0 1 .058-.048.3.3 0 0 1 .066-.035.36.36 0 0 1 .072-.022.38.38 0 0 1 .15 0c.024.005.048.012.072.022a.38.38 0 0 1 .066.035c.021.014.041.03.059.048.071.072.112.17.112.271s-.041.2-.112.271c-.018.018-.037.034-.059.048a.42.42 0 0 1-.066.036.43.43 0 0 1-.072.022.38.38 0 0 1-.075.007zm0 2.402c-.025 0-.05-.003-.075-.008a.4.4 0 0 1-.072-.022c-.023-.01-.045-.021-.066-.035A.38.38 0 0 1 3 9.377c-.071-.072-.112-.17-.112-.271s.041-.2.112-.271.17-.112.271-.112.199.04.271.112a.55.55 0 0 1 .048.058.3.3 0 0 1 .035.066.36.36 0 0 1 .022.072c.005.025.008.05.008.075a.38.38 0 0 1-.008.074.36.36 0 0 1-.022.072.32.32 0 0 1-.035.066.41.41 0 0 1-.048.059.4.4 0 0 1-.059.048.42.42 0 0 1-.066.035.43.43 0 0 1-.072.022.39.39 0 0 1-.075.008z" fill="#9ca11c"/></svg>