<svg width="900" height="765" viewBox="0 0 900 765" fill="none" xmlns="http://www.w3.org/2000/svg">
<g clip-path="url(#clip0_600_1282)">
<path d="M900 0H0V765H900V0Z" fill="#FCF9F9" fill-opacity="0.2"/>
<path d="M865.125 218.981L1166.62 249.485M1042.88 841.5L822.375 704.756L585 631.125L347.625 514.462L45 572.793M45 572.793L331.875 730.575L142.312 841.021L45 572.793ZM45 572.793L-221.625 471.431L114.75 365.287L-34.875 218.981L142.312 76.0215L-77.625 -60.2441" stroke="#9CA11C" stroke-opacity="0.1" stroke-width="0.95625"/>
<path d="M-34.875 218.981L266.625 249.581L438.75 365.288L678.375 471.431L347.062 513.985L114.188 364.81M416.25 865.406L331.875 730.575" stroke="#9CA11C" stroke-opacity="0.1" stroke-width="0.95625"/>
<path d="M585 631.125L650.25 805.163L822.375 704.756L945 572.794L678.375 471.431L585 631.125ZM585 631.125L331.875 730.575L347.625 514.463L438.75 365.288L606.375 257.231L865.125 218.981L649.688 39.6846L416.25 100.406L331.875 -34.4248L142.312 76.0221L266.625 249.581L114.75 365.288L45 572.794L-77.625 704.756L142.875 841.5" stroke="#9CA11C" stroke-opacity="0.1" stroke-width="0.95625"/>
<path d="M585 -133.875L650.812 40.6406L822.375 -60.2437M678.375 471.431L606.375 257.231M606.375 257.231L266.625 249.581L416.25 100.406M606.375 257.231L1014.75 365.288M438.75 365.288H114.75" stroke="#9CA11C" stroke-opacity="0.1" stroke-width="0.95625"/>
<path d="M-249.75 40.1627L142.312 76.0221L416.25 100.406L606.375 257.231L649.688 39.6846M649.688 39.6846L1042.88 76.5002L865.125 218.981L1014.75 365.288L678.375 471.431L822.375 704.756M649.688 39.6846L331.875 -34.4248M650.25 805.163L331.875 730.575M45 -192.206L142.875 76.5002M114.75 365.288L-293.625 257.231" stroke="#9CA11C" stroke-opacity="0.1" stroke-width="0.95625"/>
<path d="M865.125 223.763C868.232 223.763 870.75 221.622 870.75 218.981C870.75 216.341 868.232 214.2 865.125 214.2C862.018 214.2 859.5 216.341 859.5 218.981C859.5 221.622 862.018 223.763 865.125 223.763Z" fill="#9CA11C" fill-opacity="0.4"/>
<path d="M606.375 262.013C609.482 262.013 612 259.872 612 257.231C612 254.591 609.482 252.45 606.375 252.45C603.268 252.45 600.75 254.591 600.75 257.231C600.75 259.872 603.268 262.013 606.375 262.013Z" fill="#9CA11C" fill-opacity="0.4"/>
<path d="M678.375 476.213C681.482 476.213 684 474.072 684 471.432C684 468.791 681.482 466.65 678.375 466.65C675.268 466.65 672.75 468.791 672.75 471.432C672.75 474.072 675.268 476.213 678.375 476.213Z" fill="#9CA11C" fill-opacity="0.4"/>
<path d="M822.375 709.538C825.482 709.538 828 707.397 828 704.757C828 702.116 825.482 699.976 822.375 699.976C819.268 699.976 816.75 702.116 816.75 704.757C816.75 707.397 819.268 709.538 822.375 709.538Z" fill="#9CA11C" fill-opacity="0.4"/>
<path d="M585 635.907C588.107 635.907 590.625 633.767 590.625 631.126C590.625 628.485 588.107 626.345 585 626.345C581.893 626.345 579.375 628.485 579.375 631.126C579.375 633.767 581.893 635.907 585 635.907Z" fill="#9CA11C" fill-opacity="0.4"/>
<path d="M347.625 519.244C350.732 519.244 353.25 517.104 353.25 514.463C353.25 511.822 350.732 509.682 347.625 509.682C344.518 509.682 342 511.822 342 514.463C342 517.104 344.518 519.244 347.625 519.244Z" fill="#9CA11C" fill-opacity="0.4"/>
<path d="M331.875 735.356C334.982 735.356 337.5 733.216 337.5 730.575C337.5 727.935 334.982 725.794 331.875 725.794C328.768 725.794 326.25 727.935 326.25 730.575C326.25 733.216 328.768 735.356 331.875 735.356Z" fill="#9CA11C" fill-opacity="0.4"/>
<path d="M45 577.575C48.1066 577.575 50.625 575.435 50.625 572.794C50.625 570.153 48.1066 568.013 45 568.013C41.8934 568.013 39.375 570.153 39.375 572.794C39.375 575.435 41.8934 577.575 45 577.575Z" fill="#9CA11C" fill-opacity="0.4"/>
<path d="M114.75 370.069C117.857 370.069 120.375 367.929 120.375 365.288C120.375 362.647 117.857 360.507 114.75 360.507C111.643 360.507 109.125 362.647 109.125 365.288C109.125 367.929 111.643 370.069 114.75 370.069Z" fill="#9CA11C" fill-opacity="0.4"/>
<path d="M142.875 81.2822C145.982 81.2822 148.5 79.1416 148.5 76.501C148.5 73.8604 145.982 71.7197 142.875 71.7197C139.768 71.7197 137.25 73.8604 137.25 76.501C137.25 79.1416 139.768 81.2822 142.875 81.2822Z" fill="#9CA11C" fill-opacity="0.4"/>
<path d="M416.25 105.188C419.357 105.188 421.875 103.048 421.875 100.407C421.875 97.7666 419.357 95.626 416.25 95.626C413.143 95.626 410.625 97.7666 410.625 100.407C410.625 103.048 413.143 105.188 416.25 105.188Z" fill="#9CA11C" fill-opacity="0.4"/>
<path d="M650.25 44.9443C653.357 44.9443 655.875 42.8037 655.875 40.1631C655.875 37.5225 653.357 35.3818 650.25 35.3818C647.143 35.3818 644.625 37.5225 644.625 40.1631C644.625 42.8037 647.143 44.9443 650.25 44.9443Z" fill="#9CA11C" fill-opacity="0.4"/>
<path d="M266.625 254.363C269.732 254.363 272.25 252.223 272.25 249.582C272.25 246.941 269.732 244.801 266.625 244.801C263.518 244.801 261 246.941 261 249.582C261 252.223 263.518 254.363 266.625 254.363Z" fill="#9CA11C" fill-opacity="0.4"/>
<path d="M438.75 370.069C441.857 370.069 444.375 367.929 444.375 365.288C444.375 362.647 441.857 360.507 438.75 360.507C435.643 360.507 433.125 362.647 433.125 365.288C433.125 367.929 435.643 370.069 438.75 370.069Z" fill="#9CA11C" fill-opacity="0.4"/>
</g>
<defs>
<clipPath id="clip0_600_1282">
<rect width="900" height="765" rx="382.5" fill="white"/>
</clipPath>
</defs>
</svg>
